<?xml version="1.0" encoding="UTF-8" standalone="no"?>
<!-- Generator: Adobe Illustrator 12.0.0, SVG Export Plug-In . SVG Version: 6.00 Build 51448)  -->

<svg
   xmlns:dc="http://purl.org/dc/elements/1.1/"
   xmlns:cc="http://creativecommons.org/ns#"
   xmlns:rdf="http://www.w3.org/1999/02/22-rdf-syntax-ns#"
   xmlns:svg="http://www.w3.org/2000/svg"
   xmlns="http://www.w3.org/2000/svg"
   xmlns:sodipodi="http://sodipodi.sourceforge.net/DTD/sodipodi-0.dtd"
   xmlns:inkscape="http://www.inkscape.org/namespaces/inkscape"
   version="1.1"
   id="Layer_1"
   width="1000.874"
   height="286.965"
   viewBox="0 0 1000.8741 286.965"
   overflow="visible"
   enable-background="new 0 0 302.166 145.168"
   xml:space="preserve"
   inkscape:version="0.91 r13725"
   sodipodi:docname="Subway_2002.svg"
   style="overflow:visible"><metadata
   id="metadata18"><rdf:RDF><cc:Work
       rdf:about=""><dc:format>image/svg+xml</dc:format><dc:type
         rdf:resource="http://purl.org/dc/dcmitype/StillImage" /><dc:title></dc:title></cc:Work></rdf:RDF></metadata><defs
   id="defs16">
	
	
	
	
</defs><sodipodi:namedview
   pagecolor="#ffffff"
   bordercolor="#666666"
   borderopacity="1"
   objecttolerance="10"
   gridtolerance="10"
   guidetolerance="10"
   inkscape:pageopacity="0"
   inkscape:pageshadow="2"
   inkscape:window-width="1366"
   inkscape:window-height="705"
   id="namedview14"
   showgrid="false"
   inkscape:zoom="0.5"
   inkscape:cx="345.33008"
   inkscape:cy="123.77613"
   inkscape:window-x="-8"
   inkscape:window-y="-8"
   inkscape:window-maximized="1"
   inkscape:current-layer="Layer_1" />
<g
   id="g4150"
   transform="matrix(3.7288149,0,0,3.7288149,0,-254.33957)"><path
     d="m 223.57725,135.25531 -40.429,0.087 c -0.603,0 -0.994,-0.494 -0.861,-1.081 l 1.538,-6.322 -1.441,0 -3.873,7.1 c -0.114,0.21 -0.538,0.461 -0.775,0.461 l -57.017,0.072 c -0.541,0 -0.938,-0.449 -0.879,-0.982 l 0.59,-5.275 c -5.828,5.019 -13.806,6.117 -18.588,6.117 l -23.361,0 c -0.657,0 -1.044,-0.538 -0.834,-1.163 l 0.854,-2.56 c -3.848,2.923 -9,5.011 -15.895,5.011 -8.163,0 -12.955,-3.038 -15.038,-7.677 -4.954,4.823 -12.522,7.62 -20.152,7.62 -2.385,0 -4.703,-0.257 -6.907,-0.738 l -2.77,8.549 c -0.269,0.834 -1.133,0.938 -1.592,0.192 l -16.00600044,-25.954 c -0.298,-0.481 -0.108,-1.066 0.415,-1.281 l 23.29700044,-9.565 c -0.082,-0.19 -0.158,-0.38 -0.227,-0.565 -1.173,-3.083 -1.464,-8.251997 -0.676,-11.591997 1.217,-5.142 7.627,-17.85 24.697,-17.092 3.456,0.153 8.022,1.573 11.02,3.204 l 0.945,-2.132 c 0.099,-0.296 0.526,-0.603 0.839,-0.603 l 54.62,-0.148 c 3.639,0 7.63,0.79 10.672,2.849 l 0.212,-1.896 c 0.047,-0.415 0.464,-0.785 0.879,-0.785 l 97.149,0.055 c 0.409,0 0.827,0.365 0.876,0.772 l 1.189,9.575 c 3.886,-4.112 6.967,-6.652 10.896,-8.64 3.056,-1.543 6.887,-1.888 9.454,-1.96 0.467,-0.015 0.911,-0.02 1.338,-0.017 l 3.185,-9.985 c 0.267,-0.836 1.13,-0.943 1.595,-0.197 l 15.759,25.507 c 0.298,0.486 0.108,1.071 -0.425,1.284 l -27.41,11.033997 c -0.797,0.324 -1.427,-0.256 -1.173,-1.081 l 0.783,-2.54 c -1.85,1.849 -3.807,4.14 -5.771,6.7 -2.629,3.423 -5.957,10.377 -6.84,12.999 l -0.247,0.716"
     id="path6"
     inkscape:connector-curvature="0"
     style="fill:#005542" /><path
     d="m 247.49225,93.795313 c -5.226,-0.197 -11.533,6.370997 -16.719,13.122997 -2.987,3.893 -6.522,11.308 -7.521,14.283 -0.294,0.872 -3.432,9.938 -3.432,9.938 l -14.337,0 7.237,-20.639 -4.135,-27.034997 12.146,0 2.256,17.269997 c 0,0 3.587,-5.304997 5.636,-7.516997 4.031,-4.344 6.82,-6.643 10.313,-8.405 4.266,-2.158 11.979,-1.363 11.979,-1.363 l 1.876,-5.885 9.519,15.403 -16.633,6.694 1.815,-5.867 m -89.218,37.359997 25.544,-47.633997 -12.571,0 -13.938,29.564997 c 0.656,-3.473 5.154,-29.564997 5.154,-29.564997 l -11.054,0 c 0,0 -12.816,26.216997 -14.379,29.754997 l 5.66,-29.754997 -12.695,0 -5.327,47.633997 12.508,0 13.831,-29.819 c -0.657,3.285 -5.177,29.819 -5.177,29.819 l 12.444,0 m 30.994,-47.633997 -25.59,47.561997 11.959,0 4.125,-7.563 9.622,0 -1.789,7.699 13.613,0 5.655,-47.697997 -17.595,0 m 4.928,12.784 -2.886,17.454997 -6.465,0 9.351,-17.454997 z"
     id="path8"
     inkscape:connector-curvature="0"
     style="fill:#fff200" /><path
     d="m 82.10425,83.849313 12.885,0 -10.421,31.144997 c -1.923,5.75 -7.055,17.307 -21.962,17.307 -14.91,0 -12.303,-11.558 -10.38,-17.307 l 10.419,-31.144997 12.891,0 -10.022,29.944997 c -0.422,1.264 -1.037,2.906 -1.079,4.167 -0.066,1.328 0.417,2.34 2.187,2.34 1.832,0 2.992,-1.012 3.73,-2.276 0.822,-1.326 1.311,-2.967 1.713,-4.169 l 10.039,-30.006997 m -66.212,51.988997 1.743,-5.382 c 2.918,1.144 6.248,1.787 9.78,1.787 11.832,0 21.419,-7.239 21.419,-16.17 0,-3.839 -2.096,-7.06 -4.734,-10.141 -2.066,-2.414 -4.325,-5.574 -2.979,-8.782997 1.362,-3.246 4.957,-4.537 10.935,-1.007 l 5.25,-9.998 c -2.229,-1.454 -6.764,-2.979 -9.854,-3.115 -14.14,-0.63 -19.262,9.713 -20.205,13.695 -0.597,2.528 -0.333,6.790997 0.506,9.001997 0.761,1.995 2.163,4.552 4.036,6.509 1.619,1.681 2.269,4.182 1.77,5.364 -0.733,1.735 -3.127,2.644 -5.194,2.77 -2.303,0.141 -4.851,-0.269 -6.956,-1.565 l 1.925,-5.952 -17.2510004,7.084 9.8090004,15.902 m 89.645,-33.566 1.787,0 c 1.978,0 5.49,-0.696 6.786,-3.919997 1.634,-4.081 -1.716,-4.367 -3.527,-4.367 l -2.172,0 -2.874,8.286997 m -5.314,18.703 3.508,0.005 c 2.755,0 5.226,-1.049 5.912,-4.095 0.698,-3.073 -2.01,-4.796 -6.482,-4.584 l -2.938,8.674 z m -0.933,-37.325997 15.781,0 c 7.223,0 13.406,2.911 10.459,13.278 -1.039,3.647997 -4.665,8.214997 -8.373,9.537997 3.443,1.832 6.877,7.171 4.979,12.858 -3.271,9.797 -13.765,11.984 -20.294,11.984 l -18.454,0 15.902,-47.657997 z"
     id="path10"
     inkscape:connector-curvature="0"
     style="fill:#ffffff" /></g>

</svg>